<svg xmlns="http://www.w3.org/2000/svg" xmlns:xlink="http://www.w3.org/1999/xlink" width="500" zoomAndPan="magnify" viewBox="0 0 375 123.000003" height="164" preserveAspectRatio="xMidYMid meet" version="1.0"><defs><g/><clipPath id="2bcbe2e2c2"><path d="M 4 0 L 372 0 L 372 122.007812 L 4 122.007812 Z M 4 0 " clip-rule="nonzero"/></clipPath><clipPath id="aab0999c70"><rect x="0" width="368" y="0" height="123"/></clipPath></defs><g clip-path="url(#2bcbe2e2c2)"><g transform="matrix(1, 0, 0, 1, 4, 0.000000000000032234)"><g clip-path="url(#aab0999c70)"><g fill="#ffffff" fill-opacity="1"><g transform="translate(0.788648, 96.664917)"><g><path d="M 2.890625 -28.90625 C 2.890625 -34.820312 4.003906 -40.015625 6.234375 -44.484375 C 8.472656 -48.960938 11.519531 -52.40625 15.375 -54.8125 C 19.226562 -57.226562 23.53125 -58.4375 28.28125 -58.4375 C 32.34375 -58.4375 35.90625 -57.609375 38.96875 -55.953125 C 42.03125 -54.296875 44.390625 -52.128906 46.046875 -49.453125 L 46.046875 -57.609375 L 63.703125 -57.609375 L 63.703125 0 L 46.046875 0 L 46.046875 -8.15625 C 44.328125 -5.46875 41.9375 -3.296875 38.875 -1.640625 C 35.8125 0.00390625 32.25 0.828125 28.1875 0.828125 C 23.5 0.828125 19.226562 -0.390625 15.375 -2.828125 C 11.519531 -5.273438 8.472656 -8.753906 6.234375 -13.265625 C 4.003906 -17.773438 2.890625 -22.988281 2.890625 -28.90625 Z M 46.046875 -28.796875 C 46.046875 -33.203125 44.820312 -36.675781 42.375 -39.21875 C 39.9375 -41.769531 36.960938 -43.046875 33.453125 -43.046875 C 29.941406 -43.046875 26.960938 -41.789062 24.515625 -39.28125 C 22.078125 -36.769531 20.859375 -33.3125 20.859375 -28.90625 C 20.859375 -24.5 22.078125 -21.003906 24.515625 -18.421875 C 26.960938 -15.847656 29.941406 -14.5625 33.453125 -14.5625 C 36.960938 -14.5625 39.9375 -15.832031 42.375 -18.375 C 44.820312 -20.925781 46.046875 -24.398438 46.046875 -28.796875 Z M 46.046875 -28.796875 "/></g></g></g><g fill="#ffffff" fill-opacity="1"><g transform="translate(65.199396, 96.664917)"><g><path d="M 41.5 -58.21875 C 48.238281 -58.21875 53.625 -56.03125 57.65625 -51.65625 C 61.6875 -47.289062 63.703125 -41.289062 63.703125 -33.65625 L 63.703125 0 L 46.140625 0 L 46.140625 -31.28125 C 46.140625 -35.132812 45.140625 -38.128906 43.140625 -40.265625 C 41.148438 -42.398438 38.46875 -43.46875 35.09375 -43.46875 C 31.726562 -43.46875 29.046875 -42.398438 27.046875 -40.265625 C 25.046875 -38.128906 24.046875 -35.132812 24.046875 -31.28125 L 24.046875 0 L 6.40625 0 L 6.40625 -57.609375 L 24.046875 -57.609375 L 24.046875 -49.96875 C 25.835938 -52.507812 28.25 -54.519531 31.28125 -56 C 34.3125 -57.476562 37.71875 -58.21875 41.5 -58.21875 Z M 41.5 -58.21875 "/></g></g></g><g fill="#ffffff" fill-opacity="1"><g transform="translate(129.094021, 96.664917)"><g><path d="M 38.5 -14.96875 L 38.5 0 L 29.53125 0 C 23.125 0 18.128906 -1.5625 14.546875 -4.6875 C 10.972656 -7.820312 9.1875 -12.9375 9.1875 -20.03125 L 9.1875 -42.953125 L 2.171875 -42.953125 L 2.171875 -57.609375 L 9.1875 -57.609375 L 9.1875 -71.640625 L 26.84375 -71.640625 L 26.84375 -57.609375 L 38.40625 -57.609375 L 38.40625 -42.953125 L 26.84375 -42.953125 L 26.84375 -19.828125 C 26.84375 -18.097656 27.253906 -16.851562 28.078125 -16.09375 C 28.898438 -15.34375 30.273438 -14.96875 32.203125 -14.96875 Z M 38.5 -14.96875 "/></g></g></g><g fill="#ffffff" fill-opacity="1"><g transform="translate(165.324828, 96.664917)"><g><path d="M 32.625 0.828125 C 26.976562 0.828125 21.898438 -0.375 17.390625 -2.78125 C 12.890625 -5.195312 9.347656 -8.640625 6.765625 -13.109375 C 4.179688 -17.585938 2.890625 -22.816406 2.890625 -28.796875 C 2.890625 -34.722656 4.195312 -39.9375 6.8125 -44.4375 C 9.425781 -48.945312 13.003906 -52.40625 17.546875 -54.8125 C 22.085938 -57.226562 27.179688 -58.4375 32.828125 -58.4375 C 38.472656 -58.4375 43.566406 -57.226562 48.109375 -54.8125 C 52.648438 -52.40625 56.226562 -48.945312 58.84375 -44.4375 C 61.457031 -39.9375 62.765625 -34.722656 62.765625 -28.796875 C 62.765625 -22.878906 61.4375 -17.664062 58.78125 -13.15625 C 56.132812 -8.65625 52.523438 -5.195312 47.953125 -2.78125 C 43.378906 -0.375 38.269531 0.828125 32.625 0.828125 Z M 32.625 -14.453125 C 36 -14.453125 38.867188 -15.691406 41.234375 -18.171875 C 43.609375 -20.648438 44.796875 -24.191406 44.796875 -28.796875 C 44.796875 -33.410156 43.644531 -36.957031 41.34375 -39.4375 C 39.039062 -41.914062 36.203125 -43.15625 32.828125 -43.15625 C 29.390625 -43.15625 26.535156 -41.929688 24.265625 -39.484375 C 21.992188 -37.046875 20.859375 -33.484375 20.859375 -28.796875 C 20.859375 -24.191406 21.972656 -20.648438 24.203125 -18.171875 C 26.441406 -15.691406 29.25 -14.453125 32.625 -14.453125 Z M 32.625 -14.453125 "/></g></g></g><g fill="#ffffff" fill-opacity="1"><g transform="translate(225.400202, 96.664917)"><g><path d="M 41.5 -58.21875 C 48.238281 -58.21875 53.625 -56.03125 57.65625 -51.65625 C 61.6875 -47.289062 63.703125 -41.289062 63.703125 -33.65625 L 63.703125 0 L 46.140625 0 L 46.140625 -31.28125 C 46.140625 -35.132812 45.140625 -38.128906 43.140625 -40.265625 C 41.148438 -42.398438 38.46875 -43.46875 35.09375 -43.46875 C 31.726562 -43.46875 29.046875 -42.398438 27.046875 -40.265625 C 25.046875 -38.128906 24.046875 -35.132812 24.046875 -31.28125 L 24.046875 0 L 6.40625 0 L 6.40625 -57.609375 L 24.046875 -57.609375 L 24.046875 -49.96875 C 25.835938 -52.507812 28.25 -54.519531 31.28125 -56 C 34.3125 -57.476562 37.71875 -58.21875 41.5 -58.21875 Z M 41.5 -58.21875 "/></g></g></g><g fill="#ffffff" fill-opacity="1"><g transform="translate(289.294827, 96.664917)"><g/></g></g><g fill="#ffcc00" fill-opacity="1"><g transform="translate(305.503244, 96.664917)"><g><path d="M 40.46875 0 L 29.421875 -16 L 20.125 0 L 1.03125 0 L 20.03125 -29.421875 L 0.515625 -57.609375 L 20.34375 -57.609375 L 31.390625 -41.703125 L 40.671875 -57.609375 L 59.765625 -57.609375 L 40.46875 -28.59375 L 60.28125 0 Z M 40.46875 0 "/></g></g></g></g></g></g></svg>
