<svg width="832" height="305" viewBox="0 0 832 305" fill="none" xmlns="http://www.w3.org/2000/svg" role="img" aria-labelledby="antonxTitle antonxDesc">
  <title id="antonxTitle">AntonX</title>
  <desc id="antonxDesc">AntonX wordmark logo</desc>
  <rect width="832" height="305" fill="transparent"/>
  <g fill="#E8E8E8">
    <path d="M107 243C81 243 59 234 40 215C21 196 12 172 12 144C12 116 21 92 40 73C59 54 81 45 107 45C137 45 161 56 178 79V50H246V238H178V208C161 231 137 243 107 243ZM131 183C145 183 157 178 167 168C177 158 182 146 182 132C182 118 177 106 167 96C157 86 145 81 131 81C117 81 105 86 95 96C85 106 80 118 80 132C80 146 85 158 95 168C105 178 117 183 131 183Z"/>
    <path d="M267 50H335V78C347 57 367 45 394 45C417 45 435 53 448 68C462 83 469 103 469 128V238H401V138C401 122 397 110 389 101C381 92 370 88 357 88C344 88 333 92 325 101C317 110 313 122 313 138V238H245V50H267Z"/>
    <path d="M547 108V238H479V108H451V50H479V10H547V50H592V108H547Z"/>
    <path d="M704 243C676 243 652 234 633 215C614 196 605 172 605 144C605 116 614 92 633 73C652 54 676 45 704 45C732 45 756 54 775 73C794 92 803 116 803 144C803 172 794 196 775 215C756 234 732 243 704 243ZM704 183C718 183 730 178 740 168C750 158 755 146 755 132C755 118 750 106 740 96C730 86 718 81 704 81C690 81 678 86 668 96C658 106 653 118 653 132C653 146 658 158 668 168C678 178 690 183 704 183Z"/>
    <path d="M820 50H752V238H820V50Z"/>
  </g>
  <g fill="#F2CC2F">
    <path d="M636 50H713L764 121L815 50H892L810 143L896 238H819L764 163L709 238H632L718 143L636 50Z" transform="translate(-84 0)"/>
  </g>
</svg>
